<svg width="9" height="15" viewBox="0 0 9 15" fill="none" xmlns="http://www.w3.org/2000/svg">
<path d="M7.99323 6.57129C7.44094 6.57129 6.99323 7.019 6.99323 7.57129C6.99323 8.12357 7.44094 8.57129 7.99323 8.57129V6.57129ZM8.70043 8.2784C9.09096 7.88787 9.09096 7.25471 8.70043 6.86418L2.33647 0.500221C1.94595 0.109697 1.31278 0.109697 0.922257 0.500221C0.531733 0.890746 0.531733 1.52391 0.922257 1.91443L6.57911 7.57129L0.922257 13.2281C0.531733 13.6187 0.531733 14.2518 0.922257 14.6424C1.31278 15.0329 1.94595 15.0329 2.33647 14.6424L8.70043 8.2784ZM7.99323 8.57129H7.99333V6.57129H7.99323V8.57129Z" fill="#D6A354"/>
</svg>
