<?xml version="1.0" encoding="UTF-8" standalone="no"?>
<!DOCTYPE svg PUBLIC "-//W3C//DTD SVG 1.1//EN" "http://www.w3.org/Graphics/SVG/1.1/DTD/svg11.dtd">
<svg xmlns="http://www.w3.org/2000/svg" version="1.1" viewBox="0.00 0.00 352.00 438.00">
<path fill="#d6a354" d="
  M 165.80 0.00
  L 186.30 0.00
  C 275.04 5.89 342.64 72.38 352.00 160.53
  L 352.00 187.35
  C 346.59 229.90 324.50 270.71 300.27 305.25
  C 268.19 350.97 230.33 392.71 190.06 431.32
  Q 184.51 436.64 178.94 438.00
  L 172.94 438.00
  Q 166.78 436.43 162.16 431.84
  C 116.59 386.52 73.59 340.29 38.98 285.77
  C 20.25 256.25 4.18 222.46 0.00 187.45
  L 0.00 160.90
  Q 7.44 89.28 60.15 42.97
  C 89.49 17.20 126.74 2.56 165.80 0.00
  Z
  M 230.70 43.82
  C 154.00 11.94 69.72 51.42 40.88 127.92
  C 32.80 149.34 29.97 176.26 35.41 199.22
  C 39.98 218.54 48.55 237.12 59.11 254.92
  C 89.65 306.42 129.53 352.76 172.09 394.66
  Q 174.14 396.68 175.67 397.96
  Q 176.10 398.32 176.50 397.93
  C 219.88 355.79 260.35 309.07 291.63 257.15
  C 305.78 233.65 318.76 205.44 319.30 177.52
  C 320.42 119.24 284.22 66.06 230.70 43.82
  Z"
/>
<path fill="#d6a354" d="
  M 267.27 176.33
  A 91.28 91.28 0.0 0 1 175.99 267.61
  A 91.28 91.28 0.0 0 1 84.71 176.33
  A 91.28 91.28 0.0 0 1 175.99 85.05
  A 91.28 91.28 0.0 0 1 267.27 176.33
  Z
  M 234.06 176.35
  A 58.07 58.07 0.0 0 0 175.99 118.28
  A 58.07 58.07 0.0 0 0 117.92 176.35
  A 58.07 58.07 0.0 0 0 175.99 234.42
  A 58.07 58.07 0.0 0 0 234.06 176.35
  Z"
/>
</svg>
