<?xml version="1.0" encoding="UTF-8" standalone="no"?>
<!DOCTYPE svg PUBLIC "-//W3C//DTD SVG 1.1//EN" "http://www.w3.org/Graphics/SVG/1.1/DTD/svg11.dtd">
<svg xmlns="http://www.w3.org/2000/svg" version="1.1" viewBox="0.00 0.00 512.00 512.00">
<path fill="#000000" d="
  M 252.07 0.00
  L 260.06 0.00
  Q 306.99 2.16 341.16 32.20
  C 383.38 69.32 397.17 130.88 374.32 182.19
  C 352.59 231.00 303.22 261.02 249.99 258.98
  C 201.87 257.13 158.50 227.11 138.34 183.67
  C 113.84 130.86 128.59 68.08 172.47 30.72
  Q 206.14 2.05 252.07 0.00
  Z
  M 319.37 129.61
  A 63.41 63.41 0.0 0 0 255.96 66.20
  A 63.41 63.41 0.0 0 0 192.55 129.61
  A 63.41 63.41 0.0 0 0 255.96 193.02
  A 63.41 63.41 0.0 0 0 319.37 129.61
  Z"
/>
<path fill="#000000" d="
  M 161.44 512.00
  L 157.93 512.00
  C 136.05 508.94 117.97 486.20 129.59 464.63
  Q 131.87 460.39 139.96 452.23
  Q 182.64 409.15 225.39 366.14
  Q 227.81 363.71 230.22 361.45
  A 0.60 0.59 -63.9 0 0 229.87 360.42
  C 187.74 356.50 149.67 344.17 116.84 316.43
  C 102.10 303.97 96.89 287.46 109.29 270.76
  C 121.07 254.89 139.70 254.53 155.31 265.23
  C 211.65 303.85 285.47 308.13 344.60 272.80
  C 349.09 270.12 356.57 264.44 362.97 261.48
  C 380.16 253.53 396.65 259.20 405.35 275.16
  C 413.27 289.68 410.12 302.12 398.51 313.11
  C 366.69 343.20 325.42 356.31 282.83 360.26
  A 0.69 0.69 0.0 0 0 282.41 361.43
  Q 327.05 406.40 371.90 451.45
  Q 381.28 460.87 383.55 465.34
  C 392.13 482.20 381.95 501.93 365.69 508.97
  Q 347.45 516.87 332.47 503.01
  Q 315.11 486.95 261.47 431.77
  C 257.29 427.47 252.97 429.96 249.31 433.70
  Q 215.02 468.73 180.04 503.04
  Q 172.26 510.67 161.44 512.00
  Z"
/>
</svg>
