<?xml version="1.0" encoding="UTF-8" standalone="no"?>
<!DOCTYPE svg PUBLIC "-//W3C//DTD SVG 1.1//EN" "http://www.w3.org/Graphics/SVG/1.1/DTD/svg11.dtd">
<svg xmlns="http://www.w3.org/2000/svg" version="1.1" viewBox="0.00 0.00 512.00 512.00">
<path fill="#000000" d="
  M 224.68 406.94
  Q 216.98 414.49 214.78 416.52
  C 210.73 420.27 203.82 418.52 202.10 413.33
  Q 201.50 411.52 201.81 407.24
  Q 205.07 361.75 208.42 315.56
  A 2.17 2.15 70.9 0 1 209.11 314.12
  Q 300.51 229.99 392.29 145.52
  Q 394.21 143.75 394.65 142.54
  C 395.74 139.54 391.91 137.19 389.01 138.97
  Q 267.25 213.54 145.45 288.03
  A 1.10 1.09 38.5 0 1 144.54 288.13
  Q 94.20 271.11 43.96 253.93
  Q 38.58 252.09 36.27 249.87
  C 30.59 244.41 30.64 234.03 36.62 228.85
  Q 38.83 226.93 45.98 224.19
  Q 243.75 148.44 441.54 72.71
  Q 450.74 69.19 454.76 68.95
  C 466.81 68.23 478.29 77.93 479.68 89.66
  Q 480.25 94.45 477.59 106.54
  Q 442.55 265.79 407.44 425.02
  Q 406.02 431.46 403.96 434.54
  C 397.98 443.51 385.55 445.82 376.61 439.10
  Q 324.44 399.92 272.58 360.69
  A 0.93 0.92 -49.0 0 0 271.37 360.78
  Q 248.15 383.93 224.68 406.94
  Z"
/>
</svg>
