<?xml version="1.0" encoding="UTF-8" standalone="no"?>
<!DOCTYPE svg PUBLIC "-//W3C//DTD SVG 1.1//EN" "http://www.w3.org/Graphics/SVG/1.1/DTD/svg11.dtd">
<svg xmlns="http://www.w3.org/2000/svg" version="1.1" viewBox="0.00 0.00 512.00 512.00">
<path fill="#000000" d="
  M 0.00 134.93
  L 0.00 132.66
  C 1.82 125.06 9.50 123.48 16.32 123.42
  Q 51.79 123.11 87.26 122.77
  C 95.52 122.69 103.98 127.31 107.38 135.02
  Q 124.91 174.69 147.23 214.79
  C 153.63 226.29 169.73 252.18 183.55 253.02
  C 187.40 253.25 190.97 252.59 193.06 248.90
  Q 197.30 241.42 198.98 231.01
  Q 203.79 201.12 201.01 171.00
  C 200.24 162.57 198.76 153.04 195.25 145.28
  C 190.85 135.55 180.35 132.69 170.85 130.69
  A 1.30 1.30 0.0 0 1 169.84 129.16
  Q 170.32 126.91 172.09 124.86
  C 181.60 113.90 194.43 112.30 208.79 111.17
  Q 235.00 109.11 261.26 110.53
  Q 273.20 111.18 284.76 114.18
  C 297.94 117.61 300.63 131.83 300.30 143.99
  Q 298.87 198.27 298.67 222.00
  C 298.63 226.62 299.55 234.61 300.35 238.29
  C 302.24 246.95 310.38 257.35 320.04 249.29
  C 332.03 239.28 339.08 229.95 348.33 215.94
  Q 373.52 177.78 390.74 133.79
  Q 394.69 123.72 405.79 123.72
  Q 448.95 123.74 492.06 123.09
  C 510.59 122.81 515.82 132.10 508.84 148.83
  C 500.61 168.53 488.40 186.25 475.72 203.21
  Q 456.79 228.53 437.78 253.79
  C 434.53 258.11 429.63 266.17 428.82 271.71
  C 427.16 282.99 435.00 290.39 442.66 297.84
  C 465.44 319.97 490.93 342.64 506.85 369.51
  C 510.93 376.39 514.70 388.67 507.35 394.91
  C 502.00 399.46 495.71 400.35 488.85 400.49
  Q 457.23 401.13 425.59 401.51
  C 421.49 401.56 416.58 402.45 412.37 401.70
  C 382.65 396.38 365.81 371.73 346.93 350.96
  C 341.09 344.53 329.27 332.05 319.80 333.70
  Q 315.76 334.41 311.75 338.42
  C 303.25 346.92 300.56 359.79 299.64 371.46
  C 299.03 379.02 300.76 390.25 293.97 395.80
  Q 288.35 400.41 281.93 400.44
  C 264.56 400.51 245.30 401.79 228.55 399.45
  Q 201.03 395.61 176.91 382.09
  C 151.54 367.88 129.75 350.99 111.27 328.18
  C 65.45 271.65 30.42 208.14 1.59 141.18
  Q 0.58 138.82 0.00 134.93
  Z"
/>
</svg>
