<?xml version="1.0" encoding="UTF-8" standalone="no"?>
<!DOCTYPE svg PUBLIC "-//W3C//DTD SVG 1.1//EN" "http://www.w3.org/Graphics/SVG/1.1/DTD/svg11.dtd">
<svg xmlns="http://www.w3.org/2000/svg" version="1.1" viewBox="0.00 0.00 512.00 512.00">
<path fill="#000000" d="
  M 239.81 0.00
  L 274.31 0.00
  L 274.96 0.58
  A 1.50 1.47 -21.4 0 0 275.83 0.95
  C 400.28 12.00 499.55 108.83 510.78 234.24
  C 510.93 235.99 511.46 237.18 512.00 238.81
  L 512.00 265.56
  C 511.74 269.50 511.69 273.36 511.18 277.21
  Q 509.08 293.09 507.75 300.50
  C 487.24 415.00 391.45 502.20 275.10 510.85
  Q 274.64 510.88 274.27 511.17
  L 273.19 512.00
  L 239.75 512.00
  Q 229.90 510.44 220.08 508.97
  C 190.92 504.59 163.69 496.17 137.68 482.53
  A 3.14 3.09 51.6 0 0 135.49 482.26
  Q 82.02 495.47 28.51 508.78
  Q 21.01 510.65 18.34 512.00
  L 11.78 512.00
  Q 3.03 508.15 0.00 499.70
  L 0.00 493.19
  L 0.53 492.89
  Q 0.96 492.65 1.08 492.17
  Q 15.23 435.35 29.31 378.52
  Q 30.07 375.45 29.03 373.45
  Q 7.32 331.49 1.96 284.54
  Q 1.95 284.44 1.66 279.96
  Q 1.41 276.08 0.00 273.37
  L 0.00 238.94
  C 1.65 235.36 1.67 229.87 2.09 225.88
  Q 2.60 220.86 3.20 217.28
  C 22.48 101.20 115.13 12.26 233.36 1.33
  C 235.63 1.12 237.53 0.42 239.81 0.00
  Z
  M 479.98 223.77
  C 462.27 105.26 356.04 19.74 235.43 30.66
  C 107.13 42.28 14.16 159.86 31.86 287.24
  Q 37.68 329.18 58.86 367.20
  C 60.37 369.92 60.56 374.11 59.81 377.14
  Q 47.54 426.59 35.36 475.84
  A 0.67 0.67 0.0 0 0 36.17 476.65
  Q 81.36 465.55 126.51 454.28
  C 130.56 453.27 139.83 450.36 143.50 452.43
  C 238.50 506.16 357.56 485.65 428.33 402.57
  C 470.05 353.60 489.55 287.78 479.98 223.77
  Z"
/>
<path fill="#000000" d="
  M 187.24 143.27
  C 195.44 143.62 198.77 152.52 201.39 158.83
  Q 214.15 189.63 218.23 200.04
  C 218.70 201.23 218.59 202.94 218.13 204.28
  C 214.46 214.99 207.13 221.01 200.02 228.52
  C 194.61 234.23 207.88 250.23 211.33 254.93
  Q 239.21 292.82 283.03 309.22
  Q 288.82 311.39 292.92 306.65
  Q 303.56 294.35 313.33 281.32
  C 316.45 277.16 323.89 280.18 327.76 281.98
  Q 347.32 291.11 366.55 300.90
  C 373.70 304.53 377.07 305.25 376.19 313.74
  Q 374.85 326.64 371.50 335.01
  C 367.19 345.81 350.72 355.82 340.80 359.33
  C 326.69 364.33 309.81 362.36 294.48 357.81
  Q 272.23 351.20 255.73 343.78
  C 224.12 329.57 195.96 303.02 175.05 275.47
  C 160.63 256.45 145.94 236.69 140.87 212.87
  C 135.54 187.81 143.62 164.15 163.11 147.33
  C 169.26 142.02 180.91 143.00 187.24 143.27
  Z"
/>
</svg>
